# xmcd
#
# Track frame offsets:
#	150
#	17175
#	31767
#	47152
#	61132
#	82802
#	97100
#	111700
#	127067
#	143995
#	149705
#	164725
#	180242
#
# Disc length: 2604 seconds
#
# Revision: 3
# Processed by: cddbd v1.5.2PL0 Copyright (c) Steve Scherf et al.
# Submitted via: EZCDAudioConverter 8.0.2.1
#
DISCID=be0a2a0d
DTITLE=ASA DE ÁGUIA - COCOBAMBU [CD 850.207/2-464441) COLUMBIA
DYEAR=1993
DGENRE=AXÉ
TTITLE0=FICAR COM VOCÊ (BY GILMAR SINISTRO)
TTITLE1=MIAMI BEACH (BY GILMAR SINISTRO)
TTITLE2=DIA DOS NAMORADOS (ROCK AND ROLL LULLABY) MUSICA INCIDENTAL (BY GILMAR
TTITLE2=SINISTRO)
TTITLE3=ESCÓCIA (BY GILMAR SINISTRO)
TTITLE4=PÉ NA CHUVA (PART. ESP. ARMANDINHO MACEDO) (BY GILMAR SINISTRO)
TTITLE5=EVA BODY (BY GILMAR SINISTRO)
TTITLE6=COCOBAMBU (PART. ESP. CARLINHOS BROWN) (BY GILMAR SINISTRO)
TTITLE7=BATATA (BY GILMAR SINISTRO)
TTITLE8=SONHO DE AMOR (BY GILMAR SINISTRO)
TTITLE9=NORONHA (INTRO) (BY GILMAR SINISTRO)
TTITLE10=NORONHA (BY GILMAR SINISTRO)
TTITLE11=JERIMUM (PART. ESP. ARMANDINHO MACEDO) (BY GILMAR SINISTRO)
TTITLE12=BELOURINHO (BY GILMAR SINISTRO)
EXTD=
EXTT0=
EXTT1=
EXTT2=
EXTT3=
EXTT4=
EXTT5=
EXTT6=
EXTT7=
EXTT8=
EXTT9=
EXTT10=
EXTT11=
EXTT12=
PLAYORDER=
